<?xml version="1.0" encoding="UTF-8"?>
<svg xmlns="http://www.w3.org/2000/svg" viewBox="0 0 1200 630" width="1200" height="630">
  <defs>
    <linearGradient id="g44943" x1="65.45084971874736%" y1="2.447174185242318%" x2="34.549150281252636%" y2="97.55282581475768%">
      <stop offset="0%" stop-color="#D97706"/>
      <stop offset="100%" stop-color="#B45309"/>
    </linearGradient>
  </defs>
  <rect width="1200" height="630" fill="url(#g44943)"/>
  <polygon points="233.7234958494082,243.22231566999108 303.7234958494082,203.22231566999108 373.7234958494082,243.22231566999108 303.7234958494082,283.2223156699911" fill="rgba(255,255,255,0.08)" stroke="rgba(255,255,255,0.15)" stroke-width="2"/><line x1="363.7234958494082" y1="248.22231566999108" x2="363.7234958494082" y2="303.2223156699911" stroke="rgba(255,255,255,0.12)" stroke-width="2"/><path d="M 843.7691947910935 363.4432948799804 C 813.7691947910935 353.4432948799804 763.7691947910935 358.4432948799804 753.7691947910935 293.4432948799804 L 843.7691947910935 303.4432948799804 L 933.7691947910935 293.4432948799804 C 923.7691947910935 358.4432948799804 873.7691947910935 353.4432948799804 843.7691947910935 363.4432948799804 Z" fill="rgba(255,255,255,0.06)" stroke="rgba(255,255,255,0.12)" stroke-width="1.5"/><line x1="843.7691947910935" y1="363.4432948799804" x2="843.7691947910935" y2="303.4432948799804" stroke="rgba(255,255,255,0.12)" stroke-width="1.5"/><rect x="241.99188365601003" y="418.65498367697" width="8" height="100" rx="1" fill="rgba(255,255,255,0.1)" transform="rotate(33.38796965777874 241.99188365601003 418.65498367697)"/><circle cx="1019.2247888655402" cy="205.035337228328" r="30" fill="none" stroke="rgba(255,255,255,0.12)" stroke-width="2"/><line x1="1009.2247888655402" y1="235.035337228328" x2="1029.2247888655402" y2="235.035337228328" stroke="rgba(255,255,255,0.1)" stroke-width="2"/><line x1="1011.2247888655402" y1="242.035337228328" x2="1027.2247888655402" y2="242.035337228328" stroke="rgba(255,255,255,0.1)" stroke-width="2"/><circle cx="134.89614422433078" cy="171.14473066525534" r="2.2204290963709354" fill="rgba(255,255,255,0.05301729656755924)"/><circle cx="116.23718594200909" cy="571.2518861657009" r="4.036408151499927" fill="rgba(255,255,255,0.09642993839457631)"/><circle cx="607.2916871169582" cy="92.75599184213206" r="2.4701855294406414" fill="rgba(255,255,255,0.08217462286353111)"/><circle cx="205.27277181390673" cy="52.003213001880795" r="4.605145289562643" fill="rgba(255,255,255,0.11082342127338052)"/><circle cx="446.801087167114" cy="461.9006260018796" r="2.406552106142044" fill="rgba(255,255,255,0.04741350881755352)"/><circle cx="992.6530526485294" cy="95.78857744811103" r="2.7507776096463203" fill="rgba(255,255,255,0.10471013087779285)"/><circle cx="826.0105696739629" cy="105.77302447753027" r="3.036120843142271" fill="rgba(255,255,255,0.0941876031458378)"/><circle cx="284.0774855809286" cy="131.92817993694916" r="5.622384439222515" fill="rgba(255,255,255,0.09839135266840458)"/><circle cx="1089.6369522670284" cy="225.54774061543867" r="2.038506206125021" fill="rgba(255,255,255,0.11950466552749275)"/><circle cx="932.3843595106155" cy="336.86778116505593" r="4.855819122865796" fill="rgba(255,255,255,0.0689106828533113)"/><circle cx="626.8152573611587" cy="141.79951842874289" r="5.746449392288923" fill="rgba(255,255,255,0.08317002549767494)"/><circle cx="1049.7807152802125" cy="237.1217588428408" r="2.378674034960568" fill="rgba(255,255,255,0.07180406419560313)"/><circle cx="122.4788824096322" cy="270.2134760702029" r="5.741009418852627" fill="rgba(255,255,255,0.07180090464651584)"/><circle cx="543.3756294893101" cy="380.3371152491309" r="4.131686566397548" fill="rgba(255,255,255,0.06920749824494124)"/><circle cx="452.103514270857" cy="71.90350220305845" r="5.253584647551179" fill="rgba(255,255,255,0.11113617630675435)"/>
  <circle cx="1051.6330847516656" cy="599.6199994697236" r="2.711211127694696" fill="rgba(255,255,255,0.030329471472650766)"/><circle cx="774.6062681078911" cy="136.05695298174396" r="2.2516452041454613" fill="rgba(255,255,255,0.04572455681161955)"/><circle cx="842.4330892972648" cy="151.87152980826795" r="2.1616132468916476" fill="rgba(255,255,255,0.06407449064543472)"/><circle cx="999.009570479393" cy="457.5113672367297" r="1.1350582488812506" fill="rgba(255,255,255,0.03982799907214939)"/><circle cx="869.008404482156" cy="489.1743261110969" r="1.860588999465108" fill="rgba(255,255,255,0.04835123525233939)"/><circle cx="445.17268370836973" cy="141.16843375610188" r="2.3245323970913887" fill="rgba(255,255,255,0.070380529477261)"/><circle cx="736.1843188293278" cy="166.92794111324474" r="2.8078211615793407" fill="rgba(255,255,255,0.060788495030719786)"/><circle cx="10.246631037443876" cy="521.9413709593937" r="1.9936310038901865" fill="rgba(255,255,255,0.05825477534206584)"/><circle cx="271.75875809043646" cy="173.2913556857966" r="2.8150432808324695" fill="rgba(255,255,255,0.05987118522869423)"/><circle cx="836.7376397363842" cy="582.5152229843661" r="1.8160971216857433" fill="rgba(255,255,255,0.04104401992633939)"/><circle cx="1197.2339613363147" cy="398.6459431517869" r="2.077301921322942" fill="rgba(255,255,255,0.04807615153957158)"/><circle cx="1062.1719994582236" cy="208.4356172173284" r="2.110255798790604" fill="rgba(255,255,255,0.05106015207245946)"/><circle cx="540.8848981373012" cy="619.3280619755387" r="2.9422837756574154" fill="rgba(255,255,255,0.064780735115055)"/><circle cx="711.5766439586878" cy="312.96496715862304" r="2.3008954590186477" fill="rgba(255,255,255,0.04269963817903772)"/><circle cx="705.0083586014807" cy="139.5314976456575" r="1.5633613797836006" fill="rgba(255,255,255,0.07196513952920214)"/><circle cx="462.84370590001345" cy="62.566547370515764" r="1.1767658167518675" fill="rgba(255,255,255,0.05073388210264966)"/><circle cx="926.496181357652" cy="421.3177298172377" r="2.5193696091882885" fill="rgba(255,255,255,0.04218143440783024)"/><circle cx="602.7314680628479" cy="322.8305321931839" r="2.723859579768032" fill="rgba(255,255,255,0.030030105910263956)"/><circle cx="389.05259873718023" cy="418.4003575821407" r="2.2291014487855136" fill="rgba(255,255,255,0.07758712184848264)"/><circle cx="748.8834606483579" cy="137.98179732402787" r="1.3677268717437983" fill="rgba(255,255,255,0.03317966054426506)"/>
  <text x="600" y="335" font-family="system-ui, -apple-system, 'Segoe UI', sans-serif" font-size="68" font-weight="700" fill="rgba(0,0,0,0.15)" text-anchor="middle" letter-spacing="1">WAEC Mathematics</text>
  <text x="600" y="332" font-family="system-ui, -apple-system, 'Segoe UI', sans-serif" font-size="68" font-weight="700" fill="white" text-anchor="middle" letter-spacing="1">WAEC Mathematics</text>
  <g transform="translate(1140, 575)">
    <rect x="0" y="0" width="40" height="40" rx="8" fill="rgba(255,255,255,0.15)"/>
    <text x="20" y="29" font-family="sans-serif" font-weight="bold" font-size="24" fill="rgba(255,255,255,0.6)" text-anchor="middle">K</text>
  </g>
</svg>